HIERARCHY
ROOT hip
{
  OFFSET 0 0 0
  CHANNELS 6 Xposition Yposition Zposition Zrotation Yrotation Xrotation
  JOINT abdomen
  {
    OFFSET 0 20.6881 -0.73152
    CHANNELS 3 Zrotation Xrotation Yrotation
    JOINT chest
    {
      OFFSET 0 11.7043 -0.48768
      CHANNELS 3 Zrotation Xrotation Yrotation
      JOINT neck
      {
        OFFSET 0 22.1894 -2.19456
        CHANNELS 3 Zrotation Xrotation Yrotation
        JOINT head
        {
          OFFSET -0.24384 7.07133 1.2192
          CHANNELS 3 Zrotation Xrotation Yrotation
          JOINT leftEye
          {
            OFFSET 4.14528 8.04674 8.04672
            CHANNELS 3 Zrotation Xrotation Yrotation
            End Site
            {
              OFFSET 1 0 0
            }
          }
          JOINT rightEye
          {
            OFFSET -3.6576 8.04674 8.04672
            CHANNELS 3 Zrotation Xrotation Yrotation
            End Site
            {
              OFFSET 1 0 0
            }
          }
        }
      }
      JOINT rCollar
      {
        OFFSET -2.68224 19.2634 -4.8768
        CHANNELS 3 Zrotation Xrotation Yrotation
        JOINT rShldr
        {
          OFFSET -8.77824 -1.95073 1.46304
          CHANNELS 3 Zrotation Xrotation Yrotation
          JOINT rForeArm
          {
            OFFSET -28.1742 -1.7115 0.48768
            CHANNELS 3 Zrotation Xrotation Yrotation
            JOINT rHand
            {
              OFFSET -22.5879 0.773209 7.07136
              CHANNELS 3 Zrotation Xrotation Yrotation
              JOINT rThumb1
              {
                OFFSET -1.2192 -0.487915 3.41376
                CHANNELS 3 Zrotation Xrotation Yrotation
                JOINT rThumb2
                {
                  OFFSET -3.37035 -0.52449 3.41376
                  CHANNELS 3 Zrotation Xrotation Yrotation
                  End Site
                  {
                    OFFSET -1.78271 -1.18214 1.43049
                  }
                }
              }
              JOINT rIndex1
              {
                OFFSET -7.75947 0.938293 5.60832
                CHANNELS 3 Zrotation Xrotation Yrotation
                JOINT rIndex2
                {
                  OFFSET -2.54057 -0.884171 1.56538
                  CHANNELS 3 Zrotation Xrotation Yrotation
                  End Site
                  {
                    OFFSET -1.62519 -0.234802 1.16502
                  }
                }
              }
              JOINT rMid1
              {
                OFFSET -8.24714 1.18213 3.41376
                CHANNELS 3 Zrotation Xrotation Yrotation
                JOINT rMid2
                {
                  OFFSET -3.10165 -0.590103 1.0647
                  CHANNELS 3 Zrotation Xrotation Yrotation
                  End Site
                  {
                    OFFSET -2.48547 -0.328903 0.83742
                  }
                }
              }
              JOINT rRing1
              {
                OFFSET -8.82822 0.546677 1.51678
                CHANNELS 3 Zrotation Xrotation Yrotation
                JOINT rRing2
                {
                  OFFSET -2.60934 -0.819778 -0.0198488
                  CHANNELS 3 Zrotation Xrotation Yrotation
                  End Site
                  {
                    OFFSET -2.33842 -0.294052 0.168128
                  }
                }
              }
              JOINT rPinky1
              {
                OFFSET -8.27202 -0.0477905 -0.4584
                CHANNELS 3 Zrotation Xrotation Yrotation
                JOINT rPinky2
                {
                  OFFSET -1.82734 -0.647385 -0.700984
                  CHANNELS 3 Zrotation Xrotation Yrotation
                  End Site
                  {
                    OFFSET -1.69225 -0.51767 -0.607171
                  }
                }
              }
            }
          }
        }
      }
      JOINT lCollar
      {
        OFFSET 2.68224 19.2634 -4.8768
        CHANNELS 3 Zrotation Xrotation Yrotation
        JOINT lShldr
        {
          OFFSET 8.77824 -1.95073 1.46304
          CHANNELS 3 Zrotation Xrotation Yrotation
          JOINT lForeArm
          {
            OFFSET 28.1742 -1.7115 0.48768
            CHANNELS 3 Zrotation Xrotation Yrotation
            JOINT lHand
            {
              OFFSET 22.5879 0.773209 7.07136
              CHANNELS 3 Zrotation Xrotation Yrotation
              JOINT lThumb1
              {
                OFFSET 1.2192 -0.487915 3.41376
                CHANNELS 3 Zrotation Xrotation Yrotation
                JOINT lThumb2
                {
                  OFFSET 3.37035 -0.52449 3.41376
                  CHANNELS 3 Zrotation Xrotation Yrotation
                  End Site
                  {
                    OFFSET 1.78271 -1.18214 1.43049
                  }
                }
              }
              JOINT lIndex1
              {
                OFFSET 7.75947 0.938293 5.60832
                CHANNELS 3 Zrotation Xrotation Yrotation
                JOINT lIndex2
                {
                  OFFSET 2.54057 -0.884171 1.56538
                  CHANNELS 3 Zrotation Xrotation Yrotation
                  End Site
                  {
                    OFFSET 1.62519 -0.234802 1.16502
                  }
                }
              }
              JOINT lMid1
              {
                OFFSET 8.24714 1.18213 3.41376
                CHANNELS 3 Zrotation Xrotation Yrotation
                JOINT lMid2
                {
                  OFFSET 3.10165 -0.590103 1.0647
                  CHANNELS 3 Zrotation Xrotation Yrotation
                  End Site
                  {
                    OFFSET 2.48547 -0.328903 0.83742
                  }
                }
              }
              JOINT lRing1
              {
                OFFSET 8.82822 0.546677 1.51678
                CHANNELS 3 Zrotation Xrotation Yrotation
                JOINT lRing2
                {
                  OFFSET 2.60934 -0.819778 -0.0198488
                  CHANNELS 3 Zrotation Xrotation Yrotation
                  End Site
                  {
                    OFFSET 2.33842 -0.294052 0.168128
                  }
                }
              }
              JOINT lPinky1
              {
                OFFSET 8.27202 -0.0477905 -0.4584
                CHANNELS 3 Zrotation Xrotation Yrotation
                JOINT lPinky2
                {
                  OFFSET 1.82734 -0.647385 -0.700984
                  CHANNELS 3 Zrotation Xrotation Yrotation
                  End Site
                  {
                    OFFSET 1.69225 -0.51767 -0.607171
                  }
                }
              }
            }
          }
        }
      }
    }
  }
  JOINT rButtock
  {
    OFFSET -8.77824 4.35084 1.2192
    CHANNELS 3 Zrotation Xrotation Yrotation
    JOINT rThigh
    {
      OFFSET 0 -1.70687 -2.19456
      CHANNELS 3 Zrotation Xrotation Yrotation
      JOINT rShin
      {
        OFFSET 0 -36.8199 0.73152
        CHANNELS 3 Zrotation Xrotation Yrotation
        JOINT rFoot
        {
          OFFSET 0.73152 -45.1104 -5.12064
          CHANNELS 3 Zrotation Xrotation Yrotation
          End Site
          {
            OFFSET -1.1221 -3.69964 12.103
          }
        }
      }
    }
  }
  JOINT lButtock
  {
    OFFSET 8.77824 4.35084 1.2192
    CHANNELS 3 Zrotation Xrotation Yrotation
    JOINT lThigh
    {
      OFFSET 0 -1.70687 -2.19456
      CHANNELS 3 Zrotation Xrotation Yrotation
      JOINT lShin
      {
        OFFSET 0 -36.8199 0.73152
        CHANNELS 3 Zrotation Xrotation Yrotation
        JOINT lFoot
        {
          OFFSET -0.73152 -45.1104 -5.12064
          CHANNELS 3 Zrotation Xrotation Yrotation
          End Site
          {
            OFFSET 1.1221 -3.69964 12.103
          }
        }
      }
    }
  }
}
MOTION
Frames:	5
Frame Time:	0.00833333
233.765 66.1953 -28.465 176.52 12.8695 -163.673 -11.7463 33.8908 5.86425 -0.876792 -8.85574 1.46426 -1.48442 -15.3448 2.54715 -6.03282 -9.34363 5.97655 -0.0 0.0 0.0 -0.0 0.0 0.0 -1.40119e-14 2.48821e-15 -8.18325e-14 49.6511 38.7877 22.4697 -27.0734 -26.5865 61.8183 -0.192953 -12.4186 -1.77346 -4.55935e-10 -2.42056e-09 2.56839e-09 -8.15291e-10 -4.13998e-09 4.43857e-09 -4.55926e-10 -2.42056e-09 2.56838e-09 7.73091 5.47488 0.417314 -4.55937e-10 -2.42056e-09 2.56839e-09 2.90554 0.965183 0.102902 -4.55931e-10 -2.42056e-09 2.56839e-09 10.2786 0.731801 0.0259123 -4.55939e-10 -2.42056e-09 2.5684e-09 2.22167 -0.733487 -0.20892 -1.40832e-14 2.48107e-15 -8.20336e-14 -21.9182 46.117 -34.854 25.8317 -23.0107 -56.0707 0.517865 -20.0017 2.93262 5.75399e-10 -1.80218e-09 -1.59849e-09 1.02228e-09 -3.09174e-09 -2.7539e-09 5.75393e-10 -1.8022e-09 -1.59847e-09 -7.73091 5.47488 -0.417314 5.75393e-10 -1.80218e-09 -1.59849e-09 -2.90554 0.965183 -0.102902 5.75392e-10 -1.8022e-09 -1.59848e-09 -10.2786 0.731801 -0.0259123 5.75399e-10 -1.80218e-09 -1.59849e-09 -2.22167 -0.733487 0.20892 -2.03217e-16 0.0 -3.88251e-19 -44.6519 -50.5654 -51.3212 -9.63398 84.6733 10.7672 2.53747 -17.134 5.8214 2.03217e-16 0.0 3.88251e-19 40.4373 -66.9162 44.2378 2.36341 72.1617 -2.9455 0.996434 -10.0824 2.77594
233.775 66.2734 -28.6965 176.777 13.2158 -163.438 -12.2546 33.8915 6.1819 -0.737209 -8.86075 1.5239 -1.49952 -15.3127 2.55206 -6.05663 -9.58615 5.99755 -0.0 0.0 0.0 -0.0 0.0 0.0 4.02075e-17 1.5907e-14 -1.47399e-13 49.8201 39.1725 22.4174 -27.1058 -26.6976 61.9921 -0.189617 -12.3125 -1.75782 -6.14423e-10 -3.90713e-09 3.96498e-09 -1.10366e-09 -6.6826e-09 6.85115e-09 -6.14415e-10 -3.90713e-09 3.96497e-09 7.73091 5.47488 0.417314 -6.14426e-10 -3.90713e-09 3.96498e-09 2.90554 0.965183 0.102902 -6.14418e-10 -3.90713e-09 3.96498e-09 10.2786 0.731801 0.0259123 -6.14425e-10 -3.90713e-09 3.96499e-09 2.22167 -0.733487 -0.20892 -4.01552e-17 1.58981e-14 -1.47598e-13 -20.3371 46.5932 -35.3724 25.7557 -22.8233 -55.7755 0.529988 -20.2344 2.96953 8.14231e-10 -2.81933e-09 -2.49423e-09 1.44986e-09 -4.83495e-09 -4.29805e-09 8.14226e-10 -2.81935e-09 -2.49422e-09 -7.73091 5.47488 -0.417314 8.14227e-10 -2.81933e-09 -2.49423e-09 -2.90554 0.965183 -0.102902 8.14225e-10 -2.81935e-09 -2.49422e-09 -10.2786 0.731801 -0.0259123 8.14232e-10 -2.81933e-09 -2.49423e-09 -2.22167 -0.733487 0.20892 -2.03217e-16 0.0 -3.88251e-19 -46.9675 -50.6862 -52.5777 -11.6068 85.4917 12.7174 3.45874 -14.2318 9.1135 2.03217e-16 0.0 3.88251e-19 40.839 -66.742 44.6291 2.35983 72.185 -2.96407 0.970245 -10.3303 2.78
233.843 66.4072 -28.9171 177.093 13.5644 -163.298 -12.5454 33.8936 6.46698 -0.692375 -8.8324 1.5844 -1.49311 -15.2586 2.56383 -6.0221 -9.83276 6.01749 -0.0 0.0 0.0 -0.0 0.0 0.0 -6.49181e-14 2.26413e-14 -8.20639e-14 50.0836 39.5133 22.3438 -27.1493 -26.8491 62.2297 -0.188312 -12.2694 -1.75149 -2.69417e-10 -2.86165e-09 2.67284e-09 -4.95059e-10 -4.89807e-09 4.62029e-09 -2.6941e-10 -2.86165e-09 2.67283e-09 7.73091 5.47488 0.417314 -2.6942e-10 -2.86165e-09 2.67284e-09 2.90554 0.965183 0.102902 -2.69412e-10 -2.86165e-09 2.67284e-09 10.2786 0.731801 0.0259123 -2.69419e-10 -2.86165e-09 2.67285e-09 2.22167 -0.733487 -0.20892 -6.49919e-14 2.26316e-14 -8.22627e-14 -18.5172 47.1615 -35.9241 25.7368 -22.7771 -55.7097 0.550047 -20.605 3.02866 6.47445e-10 -3.26733e-09 -2.56735e-09 1.16351e-09 -5.61416e-09 -4.42802e-09 6.47439e-10 -3.26735e-09 -2.56734e-09 -7.73091 5.47488 -0.417314 6.47443e-10 -3.26734e-09 -2.56735e-09 -2.90554 0.965183 -0.102902 6.47439e-10 -3.26735e-09 -2.56735e-09 -10.2786 0.731801 -0.0259123 6.47446e-10 -3.26734e-09 -2.56735e-09 -2.22167 -0.733487 0.20892 -2.03217e-16 0.0 -3.88251e-19 -48.9284 -50.7317 -53.4505 -12.8644 85.9042 13.9852 4.1432 -11.7122 12.3184 2.03217e-16 0.0 3.88251e-19 41.4799 -66.4648 45.131 2.35002 72.1786 -2.97838 0.926209 -10.5738 2.74589
233.928 66.5833 -29.1 177.485 13.8426 -163.051 -12.6982 33.8887 6.74818 -0.708483 -8.77902 1.64957 -1.4673 -15.1883 2.58325 -5.97431 -10.0749 6.03996 -0.0 0.0 0.0 -0.0 0.0 0.0 -1.81403e-13 2.52504e-14 6.18655e-14 50.4211 39.8091 22.2391 -27.1999 -27.0289 62.5155 -0.18865 -12.2802 -1.75308 3.99821e-10 -2.94339e-10 -2.60399e-10 6.90156e-10 -5.13042e-10 -4.44628e-10 3.99828e-10 -2.94336e-10 -2.60413e-10 7.73091 5.47488 0.417314 3.99818e-10 -2.94336e-10 -2.60403e-10 2.90554 0.965183 0.102902 3.99827e-10 -2.94336e-10 -2.60399e-10 10.2786 0.731801 0.0259123 3.99819e-10 -2.94338e-10 -2.60389e-10 2.22167 -0.733487 -0.20892 -1.8146e-13 2.52406e-14 6.16667e-14 -16.4597 47.8294 -36.553 25.7646 -22.845 -55.8178 0.579814 -21.1296 3.1131 2.34857e-10 -3.43553e-09 -2.1818e-09 4.4523e-10 -5.92119e-09 -3.76985e-09 2.3485e-10 -3.43554e-09 -2.18179e-09 -7.73091 5.47488 -0.417314 2.34856e-10 -3.43553e-09 -2.1818e-09 -2.90554 0.965183 -0.102902 2.3485e-10 -3.43554e-09 -2.1818e-09 -10.2786 0.731801 -0.0259123 2.34857e-10 -3.43553e-09 -2.1818e-09 -2.22167 -0.733487 0.20892 -2.03217e-16 0.0 -3.88251e-19 -50.7319 -50.7506 -54.0795 -13.2655 86.0348 14.4175 4.64106 -9.33445 15.6276 2.03217e-16 0.0 3.88251e-19 42.2905 -66.085 45.7394 2.32905 72.1179 -2.98363 0.861954 -10.809 2.66881
234.035 66.7435 -29.2729 177.884 14.1652 -162.659 -12.7473 33.8804 6.98242 -0.727601 -8.73833 1.70721 -1.44507 -15.1151 2.59893 -5.92986 -10.2702 6.05555 -0.0 0.0 0.0 -0.0 0.0 0.0 -2.83704e-13 2.47782e-14 1.9776e-13 50.7709 40.0696 22.0866 -27.2522 -27.2195 62.821 -0.189903 -12.321 -1.75907 1.03907e-09 2.31728e-09 -3.18874e-09 1.82385e-09 3.94844e-09 -5.50161e-09 1.03908e-09 2.31728e-09 -3.18876e-09 7.73091 5.47488 0.417314 1.03907e-09 2.31728e-09 -3.18874e-09 2.90554 0.965183 0.102902 1.03908e-09 2.31728e-09 -3.18874e-09 10.2786 0.731801 0.0259123 1.03907e-09 2.31728e-09 -3.18873e-09 2.22167 -0.733487 -0.20892 -2.83737e-13 2.47688e-14 1.97561e-13 -14.2929 48.5034 -37.2755 25.8105 -22.9577 -55.9957 0.610809 -21.6471 3.19724 -1.78908e-10 -3.25967e-09 -1.5894e-09 -2.78835e-10 -5.63476e-09 -2.75379e-09 -1.78915e-10 -3.25967e-09 -1.58939e-09 -7.73091 5.47488 -0.417314 -1.78907e-10 -3.25967e-09 -1.5894e-09 -2.90554 0.965183 -0.102902 -1.78915e-10 -3.25967e-09 -1.5894e-09 -10.2786 0.731801 -0.0259123 -1.78908e-10 -3.25967e-09 -1.58941e-09 -2.22167 -0.733487 0.20892 -2.03217e-16 0.0 -3.88251e-19 -52.2117 -50.7436 -54.3206 -12.3174 85.777 13.5105 4.815 -7.49992 18.0251 2.03217e-16 0.0 3.88251e-19 43.0999 -65.7121 46.2996 2.29642 71.9925 -2.97776 0.790586 -10.9894 2.58701
